<?xml version="1.0" standalone="no"?>
<!DOCTYPE svg PUBLIC "-//W3C//DTD SVG 20010904//EN"
 "http://www.w3.org/TR/2001/REC-SVG-20010904/DTD/svg10.dtd">
<svg version="1.0" xmlns="http://www.w3.org/2000/svg"
 width="400.000000pt" height="400.000000pt" viewBox="0 0 400.000000 400.000000"
 preserveAspectRatio="xMidYMid meet">

<g transform="translate(0.000000,400.000000) scale(0.100000,-0.100000)"
fill="#000000" stroke="none">
<path d="M1521 3525 c-215 -48 -355 -215 -335 -400 18 -168 135 -335 386 -547
242 -205 323 -348 256 -448 -36 -53 -70 -72 -126 -73 -86 -1 -136 49 -136 136
0 42 4 53 28 73 43 38 87 31 112 -18 22 -42 6 -57 -51 -50 -36 4 -46 1 -51
-12 -18 -46 56 -106 112 -92 15 4 42 22 61 41 45 45 46 94 1 161 -40 58 -87
84 -151 84 -59 0 -98 -19 -134 -67 -23 -30 -28 -48 -31 -110 -4 -63 -1 -81 22
-126 48 -98 144 -140 299 -129 67 4 71 3 56 -12 -9 -9 -38 -31 -65 -49 -61
-40 -70 -67 -22 -66 18 0 66 6 106 13 40 7 74 10 76 7 2 -3 9 -26 16 -51 6
-25 18 -56 27 -68 14 -22 16 -23 33 -7 10 9 24 39 30 67 7 27 19 52 26 55 8 3
52 -1 98 -7 46 -7 91 -10 100 -7 26 10 4 41 -46 65 -24 11 -52 29 -62 41 l-19
21 99 0 c159 0 220 27 266 118 52 102 47 188 -13 257 -74 84 -216 68 -280 -33
-32 -51 -36 -89 -14 -132 21 -41 53 -60 103 -60 32 0 49 6 67 25 43 42 27 71
-48 90 -48 13 -55 27 -28 54 42 42 105 22 121 -40 21 -78 -14 -151 -81 -169
-114 -31 -212 77 -180 197 22 83 117 193 291 337 114 94 265 264 309 345 88
167 73 329 -46 461 -55 62 -161 116 -257 132 -131 22 -308 -29 -405 -117 l-42
-38 -27 22 c-69 55 -145 99 -199 114 -88 24 -179 28 -252 12z m246 -133 c142
-73 197 -210 130 -324 -66 -113 -239 -144 -330 -59 -107 99 -54 251 87 251 39
0 53 -5 77 -29 17 -18 29 -40 29 -56 0 -24 -3 -26 -32 -24 -57 4 -68 0 -68
-22 0 -27 52 -79 80 -79 58 0 110 62 110 130 0 102 -128 188 -247 165 -111
-20 -202 -118 -203 -216 0 -91 72 -200 171 -254 48 -27 63 -30 139 -30 76 0
91 3 139 30 30 17 75 49 100 71 l46 42 56 -49 c31 -27 83 -61 114 -75 49 -23
67 -26 125 -22 115 9 215 67 267 156 23 38 27 58 27 116 1 84 -23 137 -81 185
-92 76 -267 56 -330 -38 -64 -95 -27 -201 70 -201 51 0 91 33 85 72 -3 21 -7
23 -50 20 -44 -3 -48 -1 -48 20 1 48 54 88 117 88 75 0 136 -63 136 -141 0
-116 -166 -197 -288 -140 -143 66 -165 241 -45 361 57 58 118 80 216 80 179 0
304 -107 307 -263 3 -151 -48 -225 -401 -578 l-276 -276 -261 261 c-291 291
-333 340 -381 441 -59 122 -44 243 42 329 90 90 257 116 371 58z"/>
<path d="M968 1451 c-25 -77 -43 -142 -40 -145 3 -3 21 -6 39 -6 29 0 36 5 44
30 10 27 15 30 55 30 41 0 46 -3 55 -30 10 -26 16 -30 50 -30 21 0 39 3 39 8
0 4 -20 68 -44 142 l-45 135 -53 3 -53 3 -47 -140z m123 -1 c3 -21 0 -26 -25
-28 -27 -3 -28 -2 -22 23 4 15 10 41 13 59 l7 31 12 -30 c6 -16 14 -41 15 -55z"/>
<path d="M1290 1445 l0 -145 48 0 c73 1 123 16 155 49 26 25 31 40 35 89 8
111 -36 152 -163 152 l-75 0 0 -145z m142 68 c23 -20 24 -90 2 -121 -8 -12
-26 -22 -40 -22 -23 0 -24 2 -24 80 0 75 1 80 22 80 12 0 30 -7 40 -17z"/>
<path d="M1622 1448 l3 -143 38 -3 37 -3 0 145 0 146 -40 0 -41 0 3 -142z"/>
<path d="M1810 1445 l0 -145 30 0 29 0 3 102 3 102 52 -100 51 -99 51 -3 51
-3 0 145 0 146 -35 0 -34 0 -3 -92 -3 -93 -48 93 -47 92 -50 0 -50 0 0 -145z"/>
<path d="M2182 1448 l3 -143 37 -3 37 -3 3 52 c2 30 8 54 15 56 7 3 24 -20 40
-51 26 -53 29 -56 65 -56 22 0 38 5 38 11 0 7 -18 43 -40 81 l-40 69 40 59
c22 32 40 61 40 64 0 4 -17 6 -39 6 -35 0 -41 -4 -77 -57 l-39 -58 -3 58 -3
57 -40 0 -40 0 3 -142z"/>
<path d="M2502 1449 l3 -144 35 0 35 0 3 53 c2 28 7 52 12 52 5 0 24 -25 42
-55 30 -51 35 -55 70 -55 21 0 38 4 38 10 0 5 -16 32 -35 59 -19 26 -35 51
-35 55 0 3 9 15 20 26 28 28 27 90 -1 116 -16 15 -40 20 -105 23 l-85 3 3
-143z m126 52 c-2 -18 -10 -27 -25 -29 -19 -3 -23 1 -23 26 0 35 5 41 31 35
15 -4 19 -13 17 -32z"/>
<path d="M2875 1578 c-23 -62 -85 -255 -85 -265 0 -8 14 -13 39 -13 36 0 40 3
46 30 6 28 9 30 55 30 46 0 49 -2 55 -30 6 -27 10 -30 46 -30 49 0 49 1 -4
160 l-42 125 -53 3 c-36 2 -54 -1 -57 -10z m85 -150 c0 -9 -44 -11 -52 -2 -6
5 5 59 19 94 5 12 32 -65 33 -92z"/>
<path d="M1005 1098 c-3 -7 -16 -48 -29 -90 l-24 -78 29 0 c19 0 29 5 29 15 0
10 10 15 30 15 18 0 33 -6 36 -15 4 -8 17 -15 31 -15 19 0 23 4 19 18 -55 168
-49 157 -84 160 -20 2 -34 -2 -37 -10z m54 -85 c1 -7 -8 -13 -19 -13 -24 0
-23 -2 -8 41 12 34 12 34 19 9 4 -14 7 -31 8 -37z"/>
<path d="M1270 1020 l0 -90 60 0 c53 0 60 2 60 20 0 16 -7 20 -35 20 l-35 0 0
70 c0 68 -1 70 -25 70 -25 0 -25 -1 -25 -90z"/>
<path d="M1540 1020 l0 -90 55 0 c48 0 55 2 55 20 0 16 -7 20 -35 20 l-35 0 0
70 c0 63 -2 70 -20 70 -19 0 -20 -7 -20 -90z"/>
<path d="M1800 1020 c0 -89 0 -90 25 -90 25 0 25 1 25 90 0 89 0 90 -25 90
-25 0 -25 -1 -25 -90z"/>
<path d="M2016 1026 c-14 -46 -26 -87 -26 -90 0 -3 11 -6 25 -6 16 0 25 6 25
15 0 10 11 15 35 15 24 0 35 -5 35 -15 0 -9 9 -15 25 -15 14 0 25 4 25 8 0 5
-12 46 -26 90 -25 81 -26 82 -59 82 -32 0 -33 -1 -59 -84z m73 -8 c1 -10 -6
-18 -14 -18 -16 0 -18 12 -8 49 6 23 7 23 14 5 4 -10 8 -27 8 -36z"/>
<path d="M2309 1038 c0 -40 -2 -81 -4 -90 -2 -13 3 -18 21 -18 23 0 24 4 24
58 l1 57 30 -57 c27 -54 32 -58 65 -58 l35 0 -3 88 c-3 79 -5 87 -23 87 -17 0
-21 -8 -25 -54 l-5 -53 -27 56 c-25 50 -31 56 -58 56 l-30 0 -1 -72z"/>
<path d="M2655 1085 c-33 -32 -35 -105 -5 -135 28 -28 110 -29 110 -1 0 16 -8
20 -37 23 -35 3 -38 6 -41 36 -4 44 14 65 49 58 19 -4 29 0 33 11 16 39 -72
46 -109 8z"/>
<path d="M2917 1103 c-4 -3 -7 -44 -7 -90 l0 -83 55 0 c48 0 55 2 55 20 0 16
-7 20 -30 20 -39 0 -41 27 -3 32 17 2 29 10 31 21 3 13 -3 17 -27 17 -21 0
-31 5 -31 15 0 10 10 15 30 15 23 0 30 4 30 20 0 17 -7 20 -48 20 -27 0 -52
-3 -55 -7z"/>
<path d="M950 900 c0 -7 373 -10 1100 -10 727 0 1100 3 1100 10 0 7 -373 10
-1100 10 -727 0 -1100 -3 -1100 -10z"/>
<path d="M890 671 c0 -91 0 -91 25 -91 l26 0 -3 88 c-3 82 -4 87 -25 90 -22 3
-23 1 -23 -87z"/>
<path d="M1097 754 c-4 -4 -7 -45 -7 -91 0 -82 0 -83 25 -83 24 0 25 3 25 58
l0 57 29 -55 c25 -46 34 -55 60 -58 l31 -3 0 91 c0 82 -2 91 -17 88 -14 -2
-19 -16 -23 -58 l-5 -55 -30 55 c-23 42 -36 56 -55 58 -14 2 -29 0 -33 -4z"/>
<path d="M1443 750 c-18 -7 -23 -17 -23 -45 0 -31 5 -38 35 -52 44 -21 40 -39
-8 -35 -29 3 -37 0 -37 -12 0 -25 47 -39 86 -26 58 19 59 59 4 99 -42 30 -39
48 6 37 19 -5 24 -3 24 13 0 30 -41 39 -87 21z"/>
<path d="M1677 754 c-14 -14 -7 -34 13 -34 18 0 20 -7 20 -70 0 -68 1 -70 25
-70 23 0 24 3 27 68 3 61 5 67 26 70 15 2 22 9 20 20 -2 13 -17 18 -64 20 -33
2 -63 0 -67 -4z"/>
<path d="M1957 754 c-4 -4 -7 -45 -7 -91 0 -82 0 -83 25 -83 l26 0 -3 87 c-2
70 -6 88 -18 91 -9 1 -19 0 -23 -4z"/>
<path d="M2147 754 c-14 -15 -6 -33 16 -36 20 -3 22 -9 25 -70 3 -59 5 -68 22
-68 17 0 19 9 22 68 3 61 5 67 26 70 15 2 22 9 20 20 -2 13 -17 18 -64 20 -33
2 -63 0 -67 -4z"/>
<path d="M2427 754 c-4 -4 -7 -35 -7 -70 0 -73 19 -105 65 -106 72 -2 81 10
88 114 3 56 -3 68 -34 68 -5 0 -9 -27 -9 -59 0 -62 -17 -95 -45 -85 -10 4 -15
26 -17 72 -2 51 -7 68 -18 70 -9 1 -19 0 -23 -4z"/>
<path d="M2720 740 c0 -13 7 -20 20 -20 18 0 20 -7 20 -70 0 -68 1 -70 25 -70
24 0 25 2 25 70 0 63 2 70 20 70 13 0 20 7 20 20 0 18 -7 20 -65 20 -58 0 -65
-2 -65 -20z"/>
<path d="M3000 670 l0 -90 50 0 c43 0 50 3 50 20 0 15 -7 20 -25 20 -16 0 -25
6 -25 15 0 9 9 15 25 15 18 0 25 5 25 20 0 15 -7 20 -25 20 -16 0 -25 6 -25
15 0 9 9 15 25 15 18 0 25 5 25 20 0 17 -7 20 -50 20 l-50 0 0 -90z"/>
<path d="M870 545 c0 -13 138 -15 1180 -15 1042 0 1180 2 1180 15 0 13 -138
15 -1180 15 -1042 0 -1180 -2 -1180 -15z"/>
</g>
</svg>
